<mxfile host="Electron" modified="2024-02-18T21:26:13.246Z" agent="Mozilla/5.0 (Macintosh; Intel Mac OS X 10_15_7) AppleWebKit/537.36 (KHTML, like Gecko) draw.io/23.1.5 Chrome/120.0.6099.109 Electron/28.1.0 Safari/537.36" etag="i-qOvIwMJo652lDJuMe5" version="23.1.5" type="device">
  <diagram id="C5RBs43oDa-KdzZeNtuy" name="Page-1">
    <mxGraphModel dx="996" dy="786" grid="1" gridSize="15" guides="1" tooltips="1" connect="1" arrows="1" fold="1" page="0" pageScale="1" pageWidth="827" pageHeight="1169" math="0" shadow="0">
      <root>
        <mxCell id="WIyWlLk6GJQsqaUBKTNV-0" />
        <mxCell id="WIyWlLk6GJQsqaUBKTNV-1" parent="WIyWlLk6GJQsqaUBKTNV-0" />
        <mxCell id="WIyWlLk6GJQsqaUBKTNV-2" value="" style="rounded=0;html=1;jettySize=auto;orthogonalLoop=1;fontSize=11;endArrow=block;endFill=0;endSize=8;strokeWidth=1;shadow=0;labelBackgroundColor=none;edgeStyle=orthogonalEdgeStyle;entryX=0.5;entryY=0;entryDx=0;entryDy=0;" parent="WIyWlLk6GJQsqaUBKTNV-1" source="WIyWlLk6GJQsqaUBKTNV-3" target="4FIPS5M1nLEnS7ySrwgA-4" edge="1">
          <mxGeometry relative="1" as="geometry">
            <mxPoint x="-15" y="160" as="targetPoint" />
          </mxGeometry>
        </mxCell>
        <mxCell id="WIyWlLk6GJQsqaUBKTNV-3" value="socket()" style="rounded=1;whiteSpace=wrap;html=1;fontSize=12;glass=0;strokeWidth=1;shadow=0;" parent="WIyWlLk6GJQsqaUBKTNV-1" vertex="1">
          <mxGeometry x="-75" y="60" width="120" height="40" as="geometry" />
        </mxCell>
        <mxCell id="uR6VoOhmJnzr9ryOIV7n-12" style="edgeStyle=orthogonalEdgeStyle;rounded=0;orthogonalLoop=1;jettySize=auto;html=1;entryX=1;entryY=0.5;entryDx=0;entryDy=0;startArrow=classic;startFill=1;endArrow=none;endFill=0;" edge="1" parent="WIyWlLk6GJQsqaUBKTNV-1" source="lpXn6k4dKzrA94jkJD75-2" target="WIyWlLk6GJQsqaUBKTNV-3">
          <mxGeometry relative="1" as="geometry" />
        </mxCell>
        <mxCell id="lpXn6k4dKzrA94jkJD75-2" value="Creates a socket object, returns a file descriptor. Internally, Linux kernel sets needed flags and handlers for a chosen protocol family, which is PF_INET in our case." style="whiteSpace=wrap;html=1;spacingLeft=2;spacingRight=2;" parent="WIyWlLk6GJQsqaUBKTNV-1" vertex="1">
          <mxGeometry x="180" y="25" width="210" height="110" as="geometry" />
        </mxCell>
        <mxCell id="uR6VoOhmJnzr9ryOIV7n-1" value="" style="edgeStyle=orthogonalEdgeStyle;rounded=0;orthogonalLoop=1;jettySize=auto;html=1;startArrow=classic;startFill=1;endArrow=none;endFill=0;" edge="1" parent="WIyWlLk6GJQsqaUBKTNV-1" source="lpXn6k4dKzrA94jkJD75-7" target="lpXn6k4dKzrA94jkJD75-2">
          <mxGeometry relative="1" as="geometry" />
        </mxCell>
        <UserObject label="(PF)AF_INET handlers" link="https://elixir.bootlin.com/linux/latest/source/net/ipv4/af_inet.c#L1051" id="lpXn6k4dKzrA94jkJD75-7">
          <mxCell style="fontColor=#0000EE;fontStyle=4;rounded=1;overflow=hidden;spacing=10;" parent="WIyWlLk6GJQsqaUBKTNV-1" vertex="1">
            <mxGeometry x="475" y="20" width="155" height="40" as="geometry" />
          </mxCell>
        </UserObject>
        <mxCell id="uR6VoOhmJnzr9ryOIV7n-0" value="" style="edgeStyle=orthogonalEdgeStyle;rounded=0;orthogonalLoop=1;jettySize=auto;html=1;endArrow=none;endFill=0;startArrow=classic;startFill=1;" edge="1" parent="WIyWlLk6GJQsqaUBKTNV-1" source="lpXn6k4dKzrA94jkJD75-9" target="lpXn6k4dKzrA94jkJD75-2">
          <mxGeometry relative="1" as="geometry" />
        </mxCell>
        <UserObject label="struct proto_ops" link="https://elixir.bootlin.com/linux/latest/source/include/linux/net.h#L161" id="lpXn6k4dKzrA94jkJD75-9">
          <mxCell style="fontColor=#0000EE;fontStyle=4;rounded=1;overflow=hidden;spacing=10;" parent="WIyWlLk6GJQsqaUBKTNV-1" vertex="1">
            <mxGeometry x="475" y="95" width="120" height="40" as="geometry" />
          </mxCell>
        </UserObject>
        <mxCell id="uR6VoOhmJnzr9ryOIV7n-10" value="" style="edgeStyle=orthogonalEdgeStyle;rounded=0;orthogonalLoop=1;jettySize=auto;html=1;" edge="1" parent="WIyWlLk6GJQsqaUBKTNV-1" source="4FIPS5M1nLEnS7ySrwgA-4" target="4FIPS5M1nLEnS7ySrwgA-12">
          <mxGeometry relative="1" as="geometry" />
        </mxCell>
        <mxCell id="uR6VoOhmJnzr9ryOIV7n-11" style="edgeStyle=orthogonalEdgeStyle;rounded=0;orthogonalLoop=1;jettySize=auto;html=1;entryX=0.5;entryY=0;entryDx=0;entryDy=0;" edge="1" parent="WIyWlLk6GJQsqaUBKTNV-1" source="4FIPS5M1nLEnS7ySrwgA-4" target="4FIPS5M1nLEnS7ySrwgA-9">
          <mxGeometry relative="1" as="geometry" />
        </mxCell>
        <mxCell id="uR6VoOhmJnzr9ryOIV7n-19" style="edgeStyle=orthogonalEdgeStyle;rounded=0;orthogonalLoop=1;jettySize=auto;html=1;entryX=0;entryY=0.5;entryDx=0;entryDy=0;" edge="1" parent="WIyWlLk6GJQsqaUBKTNV-1" source="4FIPS5M1nLEnS7ySrwgA-4" target="4FIPS5M1nLEnS7ySrwgA-5">
          <mxGeometry relative="1" as="geometry" />
        </mxCell>
        <mxCell id="4FIPS5M1nLEnS7ySrwgA-4" value="bind()" style="rounded=1;whiteSpace=wrap;html=1;fontSize=12;glass=0;strokeWidth=1;shadow=0;" parent="WIyWlLk6GJQsqaUBKTNV-1" vertex="1">
          <mxGeometry x="-75" y="435" width="120" height="40" as="geometry" />
        </mxCell>
        <mxCell id="4FIPS5M1nLEnS7ySrwgA-5" value="Reserves source port on a given IP address. Internally, Linux kernel does a get_port() call to achieve this." style="rounded=0;whiteSpace=wrap;html=1;spacingLeft=2;spacingRight=2;" parent="WIyWlLk6GJQsqaUBKTNV-1" vertex="1">
          <mxGeometry x="180" y="405" width="210" height="100" as="geometry" />
        </mxCell>
        <mxCell id="uR6VoOhmJnzr9ryOIV7n-2" value="" style="edgeStyle=orthogonalEdgeStyle;rounded=0;orthogonalLoop=1;jettySize=auto;html=1;endArrow=none;endFill=0;startArrow=classic;startFill=1;" edge="1" parent="WIyWlLk6GJQsqaUBKTNV-1" source="4FIPS5M1nLEnS7ySrwgA-6" target="4FIPS5M1nLEnS7ySrwgA-5">
          <mxGeometry relative="1" as="geometry" />
        </mxCell>
        <UserObject label="get_port() implementation for AF_INET" link="https://elixir.bootlin.com/linux/latest/source/net/ipv4/inet_connection_sock.c#L507" id="4FIPS5M1nLEnS7ySrwgA-6">
          <mxCell style="fontColor=#0000EE;fontStyle=4;rounded=1;overflow=hidden;spacing=10;" parent="WIyWlLk6GJQsqaUBKTNV-1" vertex="1">
            <mxGeometry x="475" y="432.5" width="245" height="45" as="geometry" />
          </mxCell>
        </UserObject>
        <mxCell id="4FIPS5M1nLEnS7ySrwgA-9" value="connect()" style="whiteSpace=wrap;html=1;rounded=1;glass=0;strokeWidth=1;shadow=0;" parent="WIyWlLk6GJQsqaUBKTNV-1" vertex="1">
          <mxGeometry x="45" y="562.5" width="120" height="45" as="geometry" />
        </mxCell>
        <mxCell id="4FIPS5M1nLEnS7ySrwgA-12" value="listen()" style="rounded=1;whiteSpace=wrap;html=1;" parent="WIyWlLk6GJQsqaUBKTNV-1" vertex="1">
          <mxGeometry x="-195" y="562.5" width="120" height="45" as="geometry" />
        </mxCell>
        <mxCell id="uR6VoOhmJnzr9ryOIV7n-15" style="edgeStyle=orthogonalEdgeStyle;rounded=0;orthogonalLoop=1;jettySize=auto;html=1;entryX=0.5;entryY=0;entryDx=0;entryDy=0;curved=1;dashed=1;endArrow=none;endFill=0;" edge="1" parent="WIyWlLk6GJQsqaUBKTNV-1" source="uR6VoOhmJnzr9ryOIV7n-14" target="lpXn6k4dKzrA94jkJD75-2">
          <mxGeometry relative="1" as="geometry" />
        </mxCell>
        <mxCell id="uR6VoOhmJnzr9ryOIV7n-14" value="&lt;div style=&quot;&quot;&gt;&lt;span style=&quot;background-color: initial;&quot;&gt;Since a file descriptor is returned, regular syscalls can be used on it (read, write, etc.)&lt;/span&gt;&lt;/div&gt;" style="ellipse;shape=cloud;whiteSpace=wrap;html=1;align=center;perimeterSpacing=0;spacingTop=0;spacingLeft=31;spacingRight=26;" vertex="1" parent="WIyWlLk6GJQsqaUBKTNV-1">
          <mxGeometry x="195" y="-195" width="180" height="150" as="geometry" />
        </mxCell>
        <mxCell id="uR6VoOhmJnzr9ryOIV7n-18" style="edgeStyle=orthogonalEdgeStyle;rounded=0;orthogonalLoop=1;jettySize=auto;html=1;entryX=0.5;entryY=0;entryDx=0;entryDy=0;dashed=1;startArrow=none;startFill=0;endArrow=none;endFill=0;curved=1;" edge="1" parent="WIyWlLk6GJQsqaUBKTNV-1" source="uR6VoOhmJnzr9ryOIV7n-16" target="4FIPS5M1nLEnS7ySrwgA-5">
          <mxGeometry relative="1" as="geometry" />
        </mxCell>
        <mxCell id="uR6VoOhmJnzr9ryOIV7n-16" value="&lt;div style=&quot;&quot;&gt;Source (as well as destination) port is an unsigned 16-bit integer, so available range is [0; 65535].&lt;br&gt;&lt;/div&gt;" style="ellipse;shape=cloud;whiteSpace=wrap;html=1;align=center;perimeterSpacing=0;spacingTop=0;spacingLeft=31;spacingRight=26;" vertex="1" parent="WIyWlLk6GJQsqaUBKTNV-1">
          <mxGeometry x="75" y="180" width="180" height="150" as="geometry" />
        </mxCell>
        <mxCell id="uR6VoOhmJnzr9ryOIV7n-21" style="edgeStyle=orthogonalEdgeStyle;rounded=0;orthogonalLoop=1;jettySize=auto;html=1;entryX=0.5;entryY=0;entryDx=0;entryDy=0;endArrow=none;endFill=0;dashed=1;curved=1;" edge="1" parent="WIyWlLk6GJQsqaUBKTNV-1" source="uR6VoOhmJnzr9ryOIV7n-20" target="4FIPS5M1nLEnS7ySrwgA-5">
          <mxGeometry relative="1" as="geometry" />
        </mxCell>
        <mxCell id="uR6VoOhmJnzr9ryOIV7n-20" value="&lt;div style=&quot;&quot;&gt;This puts a global hard limit on available sockets on a single IP address between all processes.&lt;/div&gt;" style="ellipse;shape=cloud;whiteSpace=wrap;html=1;align=center;perimeterSpacing=0;spacingTop=0;spacingLeft=31;spacingRight=26;" vertex="1" parent="WIyWlLk6GJQsqaUBKTNV-1">
          <mxGeometry x="315" y="180" width="180" height="150" as="geometry" />
        </mxCell>
      </root>
    </mxGraphModel>
  </diagram>
</mxfile>
